<?xml version="1.0" encoding="UTF-8" standalone="no"?>
<!-- Created with Inkscape (http://www.inkscape.org/) -->

<svg
   xmlns:dc="http://purl.org/dc/elements/1.1/"
   xmlns:cc="http://creativecommons.org/ns#"
   xmlns:rdf="http://www.w3.org/1999/02/22-rdf-syntax-ns#"
   xmlns:svg="http://www.w3.org/2000/svg"
   xmlns="http://www.w3.org/2000/svg"
   xmlns:sodipodi="http://sodipodi.sourceforge.net/DTD/sodipodi-0.dtd"
   xmlns:inkscape="http://www.inkscape.org/namespaces/inkscape"
   width="210mm"
   height="297mm"
   viewBox="0 0 210 297"
   version="1.1"
   id="svg8"
   inkscape:version="0.92.4 (5da689c313, 2019-01-14)"
   sodipodi:docname="drawing.svg">
  <defs
     id="defs2" />
  <sodipodi:namedview
     id="base"
     pagecolor="#ffffff"
     bordercolor="#666666"
     borderopacity="1.0"
     inkscape:pageopacity="0.0"
     inkscape:pageshadow="2"
     inkscape:zoom="0.35"
     inkscape:cx="-187.14286"
     inkscape:cy="788.57143"
     inkscape:document-units="mm"
     inkscape:current-layer="layer1"
     showgrid="false"
     inkscape:snap-global="false"
     inkscape:window-width="1600"
     inkscape:window-height="844"
     inkscape:window-x="0"
     inkscape:window-y="25"
     inkscape:window-maximized="1" />
  <metadata
     id="metadata5">
    <rdf:RDF>
      <cc:Work
         rdf:about="">
        <dc:format>image/svg+xml</dc:format>
        <dc:type
           rdf:resource="http://purl.org/dc/dcmitype/StillImage" />
        <dc:title></dc:title>
      </cc:Work>
    </rdf:RDF>
  </metadata>
  <g
     inkscape:label="Layer 1"
     inkscape:groupmode="layer"
     id="layer1">
    <path
       style="fill:#008080;stroke-width:0.26458332"
       id="path166"
       d="m 25.23578,115.1652 c 2.595182,-2.85208 5.230789,-5.6679 7.785543,-8.55625 2.465009,-2.78689 23.398154,-27.003322 24.827129,-28.656137 11.642013,-13.465624 15.891618,-18.22937 27.069557,-31.794283 3.56847,-4.330493 7.050384,-8.731591 10.575573,-13.097388 1.182831,-1.578761 9.657358,-12.151804 10.912128,-15.872613 0.30661,-0.909207 0.20488,-2.310054 -0.61249,-2.812626 -1.0024,-0.616343 -2.39099,-0.06085 -3.51969,0.271881 -6.688815,1.971772 -9.753944,4.701766 -15.906856,8.629472 -9.897028,8.169462 -18.535202,17.765061 -25.804632,28.337604 -4.491733,6.532706 -9.41818,14.85596 -11.621915,22.6426 -0.976382,3.449926 -1.068898,7.090749 -1.603346,10.63612 0.658852,3.370464 0.662935,6.938301 1.976559,10.111388 5.299419,12.800872 18.689857,21.238442 30.163902,27.609842 7.271337,4.03769 23.654528,11.43801 31.233588,14.93914 8.27307,4.08239 17.06483,7.01408 25.39478,10.96796 6.40364,3.03954 17.0803,7.69585 14.79667,17.06797 -0.71036,2.91532 -2.9178,5.24417 -4.3767,7.86625 -10.46313,9.62011 -12.35189,12.13516 -26.66045,20.45582 -4.77273,2.77543 -9.91972,4.88358 -15.07016,6.87229 -10.718538,4.13868 -22.394815,7.25298 -33.788631,8.79796 -5.548548,0.75237 -11.17143,0.78034 -16.757144,1.17051 C 49.002486,210.29434 43.675961,210.39804 38.509072,209.3776 25.341521,206.77707 13.208374,199.99752 6.071095,188.32615 1.1534561,180.28449 1.5891877,176.44117 0.4224451,167.47748 1.3850648,159.30849 0.96405122,155.55996 5.0837829,148.29192 9.0105086,141.36439 17.711942,135.03624 24.193585,131.852 c 5.51703,-2.71034 12.113939,-0.82319 17.62853,-0.009 2.954618,1.61768 6.241169,2.73924 8.863852,4.85305 6.425721,5.17896 12.595767,14.64334 16.381129,21.59515 5.556906,10.20526 11.528308,25.4066 15.898823,35.89824 0,0 -3.189875,2.52695 -3.189875,2.52695 v 0 C 73.960687,184.30724 69.533306,173.78008 62.290398,162.21769 57.92186,155.24386 51.754045,146.92893 44.880757,141.96803 c -2.689415,-1.94113 -5.942383,-2.9482 -8.913574,-4.4223 -20.738224,-2.42515 2.479947,-0.61421 -17.384304,0.54313 -0.482439,0.0281 -0.637916,-1.35266 -1.008055,-1.04196 -4.931516,4.13959 -7.9468721,9.54189 -9.6178021,15.70263 -0.8954995,3.30172 -0.939297,6.77723 -1.4089456,10.16584 0.9395274,8.76087 0.487535,12.84455 5.0171187,20.82106 6.600048,11.62257 18.301736,18.73725 31.140327,21.52285 5.049965,1.0957 10.28232,1.04145 15.423478,1.56217 15.495164,-0.96081 18.285748,-0.37951 33.594918,-4.46599 14.629052,-3.90493 18.825222,-6.44642 32.262552,-13.06166 2.45161,-1.20693 5.07791,-2.14595 7.28891,-3.75174 3.01645,-2.19075 5.50647,-5.02715 8.2597,-7.54073 2.76392,-4.72422 6.24052,-7.78691 3.93685,-13.69814 -1.9467,-4.99524 -8.49973,-8.66633 -12.57331,-11.0152 -5.25817,-3.03192 -19.30432,-9.75997 -24.13273,-12.11911 -5.17156,-2.43312 -10.342271,-4.86803 -15.514674,-7.29936 -5.318397,-2.49995 -10.724515,-4.82078 -15.95773,-7.49447 -9.298791,-4.75082 -17.994759,-9.2304 -25.250258,-16.91549 -2.740983,-2.90327 -5.264047,-6.15825 -6.86429,-9.816279 -1.41833,-3.242207 -1.327856,-6.952052 -1.991785,-10.428079 0.611653,-3.670366 0.752334,-7.451095 1.834959,-11.011101 2.374913,-7.809447 7.887404,-16.807248 12.420055,-23.357178 9.883494,-14.282192 22.016164,-26.420114 35.774047,-37.013711 4.57976,-3.031631 12.090766,-8.8724599 18.106426,-10.1576319 1.52919,-0.3266926 3.60352,-0.4550272 4.63556,0.7197297 0.91984,1.0470493 0.25756,2.9091342 -0.34244,4.1670802 -1.6372,3.432531 -12.59019,16.403733 -13.638194,17.691261 C 89.707314,42.483132 85.880405,47.07124 75.233587,59.610397 61.135757,76.21394 46.910892,92.719534 33.64893,110.0096 c 0,0 -8.41315,5.15559 -8.41315,5.15559 z"
       inkscape:connector-curvature="0" />
  </g>
</svg>
